<svg xmlns="http://www.w3.org/2000/svg" width="512" height="512" viewBox="0 0 512 512">
  <!-- Background with rounded corners -->
  <rect width="512" height="512" rx="112" fill="#84a98c"/>

  <!-- Runner silhouette -->
  <g fill="white" transform="translate(256, 240)">
    <!-- Head -->
    <circle cx="75" cy="-112" r="32"/>
    <!-- Body/torso -->
    <path d="M48 -75 L22 22 L48 22 L75 -48 L102 22 L128 22 L102 -75 L75 -80 Z"/>
    <!-- Back leg (extended behind) -->
    <path d="M22 22 L-48 112 L-22 128 L48 48 Z"/>
    <!-- Front leg (forward stride) -->
    <path d="M102 22 L155 128 L128 139 L75 48 Z"/>
    <!-- Back arm -->
    <path d="M48 -59 L-22 -22 L-11 0 L59 -37 Z"/>
    <!-- Front arm -->
    <path d="M85 -59 L139 -101 L149 -80 L96 -37 Z"/>
  </g>

  <!-- 10K text at bottom -->
  <text x="256" y="460" text-anchor="middle" font-family="system-ui, -apple-system, sans-serif" font-size="96" font-weight="bold" fill="white">10K</text>
</svg>
