<svg xmlns="http://www.w3.org/2000/svg" width="32" height="32" viewBox="0 0 32 32">
  <!-- Background -->
  <rect width="32" height="32" rx="7" fill="#84a98c"/>

  <!-- Small runner silhouette -->
  <g fill="white" transform="translate(16, 14) scale(0.25)">
    <!-- Head -->
    <circle cx="28" cy="-42" r="12"/>
    <!-- Body -->
    <path d="M18 -28 L8 8 L18 8 L28 -18 L38 8 L48 8 L38 -28 L28 -30 Z"/>
    <!-- Legs -->
    <path d="M8 8 L-18 42 L-8 48 L18 18 Z"/>
    <path d="M38 8 L58 48 L48 52 L28 18 Z"/>
    <!-- Arms -->
    <path d="M18 -22 L-8 -8 L-4 0 L22 -14 Z"/>
    <path d="M32 -22 L52 -38 L56 -30 L36 -14 Z"/>
  </g>

  <!-- 10K text -->
  <text x="16" y="29" text-anchor="middle" font-family="system-ui, sans-serif" font-size="7" font-weight="bold" fill="white">10K</text>
</svg>
